Coordinates
version=1
nRows=25
nColumns=24
inDegrees=yes

Units are S.I. units (second, meters, Newtons, ...)
If the header above contains a line with 'inDegrees', this indicates whether rotational values are in degrees (yes) or radians (no).

endheader
time	pelvis_tilt	pelvis_list	pelvis_rotation	pelvis_tx	pelvis_ty	pelvis_tz	hip_flexion_r	hip_adduction_r	hip_rotation_r	knee_angle_r	ankle_angle_r	subtalar_angle_r	mtp_angle_r	hip_flexion_l	hip_adduction_l	hip_rotation_l	knee_angle_l	ankle_angle_l	subtalar_angle_l	mtp_angle_l	lumbar_extension	lumbar_bending	lumbar_rotation
0.725000	13.737049	1.275613	-181.084635	0.273134	0.696741	-1.208390	55.112903	-23.510058	-15.974679	-73.338738	26.933795	9.511267	0.000000	55.236522	-29.509799	-17.475831	-73.580452	27.630539	16.535490	0.000000	-5.251344	1.228198	2.074464
0.730000	13.779398	1.327660	-181.145768	0.273832	0.692840	-1.208436	55.753439	-23.544782	-15.691310	-74.264219	27.328622	9.458838	0.000000	55.922478	-29.693675	-17.049803	-74.516796	28.058989	16.437337	0.000000	-5.305510	1.308452	2.162856
0.735000	13.816653	1.352928	-181.180163	0.274611	0.688871	-1.208506	56.409623	-23.620228	-15.413656	-75.204674	27.730689	9.348977	0.000000	56.614235	-29.834087	-16.622460	-75.446495	28.491093	16.348116	0.000000	-5.378516	1.352951	2.215378
0.740000	13.815981	1.382557	-181.195564	0.275397	0.684927	-1.208593	57.005808	-23.708338	-15.157323	-76.123972	28.102824	9.307075	0.000000	57.278925	-29.964010	-16.185644	-76.374526	28.864893	16.232951	0.000000	-5.499810	1.386126	2.267573
0.745000	13.845934	1.457125	-181.229552	0.276155	0.680977	-1.208710	57.595019	-23.751515	-14.959082	-77.004127	28.487289	9.245033	0.000000	57.979838	-30.135972	-15.723230	-77.268990	29.273170	16.154065	0.000000	-5.581548	1.491191	2.271846
0.750000	13.787361	1.465164	-181.204967	0.276827	0.677163	-1.208934	58.090839	-23.856228	-14.739445	-77.912858	28.920166	9.103803	0.000000	58.561233	-30.233432	-15.308237	-78.178026	29.625546	16.094385	0.000000	-5.760827	1.460460	2.268116
0.755000	13.822302	1.558460	-181.235417	0.277503	0.673299	-1.209034	58.664158	-23.887995	-14.567245	-78.780210	29.279383	9.072305	0.000000	59.251989	-30.412372	-14.860831	-79.024434	30.036790	15.989273	0.000000	-5.833204	1.571013	2.347874
0.760000	13.761937	1.594648	-181.223069	0.278186	0.669471	-1.209185	59.171129	-23.994929	-14.371811	-79.689732	29.649217	8.986647	0.000000	59.837664	-30.525024	-14.428583	-79.898435	30.414918	15.915302	0.000000	-6.013482	1.611259	2.320072
0.765000	13.732901	1.660911	-181.235315	0.278692	0.665803	-1.209315	59.645856	-24.071035	-14.214580	-80.527090	30.015837	8.998473	0.000000	60.421297	-30.682072	-14.020408	-80.739987	30.781904	15.860683	0.000000	-6.140114	1.664443	2.378274
0.770000	13.753386	1.731636	-181.236332	0.279295	0.662050	-1.209375	60.167408	-24.156693	-14.069633	-81.346406	30.361145	9.013321	0.000000	61.157010	-30.844452	-13.588996	-81.830334	30.799730	15.643429	0.000000	-6.219751	1.741525	2.423912
0.775000	13.647261	1.737523	-181.219172	0.279807	0.658403	-1.209539	60.580328	-24.284357	-13.863259	-82.183716	30.772554	8.938286	0.000000	61.626042	-30.943507	-13.234123	-82.642912	31.180663	15.612062	0.000000	-6.437955	1.732151	2.412471
0.780000	13.647937	1.807652	-181.227581	0.280366	0.654700	-1.209715	61.081093	-24.366742	-13.735764	-83.005488	31.075471	8.989466	0.000000	62.249740	-31.100615	-12.826664	-83.475245	31.503952	15.629387	0.000000	-6.534015	1.796020	2.441761
0.785000	13.641879	1.868959	-181.266183	0.280853	0.651052	-1.209845	61.579608	-24.438896	-13.590038	-83.816156	31.398052	9.006906	0.000000	62.781490	-31.264930	-12.472640	-84.110746	32.041142	15.686678	0.000000	-6.631714	1.860976	2.505229
0.790000	13.568267	1.908547	-181.282928	0.281313	0.647439	-1.209986	62.014445	-24.535470	-13.430894	-84.638916	31.725356	9.003938	0.000000	63.325102	-31.427622	-12.115851	-85.043016	32.305474	15.663618	0.000000	-6.804455	1.905769	2.503698
0.795000	13.502308	1.972301	-181.300052	0.281661	0.643966	-1.210141	62.400962	-24.628512	-13.325545	-85.405120	32.029272	9.107345	0.000000	63.822163	-31.601022	-11.758236	-85.816318	32.647902	15.719451	0.000000	-6.963312	1.945381	2.574885
0.800000	13.429916	2.002419	-181.319354	0.282028	0.640462	-1.210320	62.800085	-24.727951	-13.169483	-86.168332	32.381325	9.123685	0.000000	64.281454	-31.749339	-11.442057	-86.565755	33.025287	15.739836	0.000000	-7.121377	1.965327	2.579475
0.805000	13.320400	2.073791	-181.338730	0.282304	0.637025	-1.210698	63.125320	-24.790757	-13.063495	-86.932342	32.722529	9.270142	0.000000	64.717550	-32.044202	-11.255135	-87.762481	33.860147	16.133799	0.000000	-7.320181	1.974233	2.663304
0.810000	13.255282	2.117967	-181.361135	0.282614	0.633616	-1.210890	63.518098	-24.898441	-12.953114	-87.689655	33.031124	9.337114	0.000000	65.189050	-32.205870	-10.919882	-88.499117	34.188824	16.175264	0.000000	-7.464841	1.986911	2.733362
0.815000	13.234076	2.143419	-181.381094	0.283003	0.630189	-1.210970	63.977380	-25.019019	-12.813272	-88.439891	33.315302	9.352911	0.000000	65.710397	-32.298809	-10.531163	-89.088329	34.215418	16.061092	0.000000	-7.579281	2.008004	2.754173
0.820000	13.148102	2.135784	-181.395740	0.283264	0.626906	-1.211120	64.358976	-25.155035	-12.649649	-89.177329	33.627064	9.338572	0.000000	66.104792	-32.405864	-10.254756	-89.794141	34.533526	16.040113	0.000000	-7.726067	1.984145	2.818127
0.825000	13.103546	2.150894	-181.413823	0.283548	0.623585	-1.211261	64.768680	-25.280428	-12.516883	-89.897246	33.906723	9.370465	0.000000	66.544566	-32.529526	-9.990489	-90.456216	34.842481	16.017701	0.000000	-7.841561	1.989902	2.850274
0.830000	13.086358	2.153622	-181.398224	0.283814	0.620248	-1.211396	65.189326	-25.440759	-12.375665	-90.600366	34.175778	9.561688	0.000000	67.024262	-32.613405	-9.689197	-91.122134	35.096582	16.084906	0.000000	-7.916335	1.980752	2.846496
0.835000	13.044891	2.156414	-181.372287	0.284075	0.616969	-1.211577	65.582653	-25.605009	-12.250400	-91.302849	34.453117	9.676474	0.000000	67.491449	-32.681127	-9.370552	-91.840806	35.254745	16.045063	0.000000	-8.033085	1.946851	2.846838
0.840000	12.974865	2.168678	-181.376935	0.284247	0.613816	-1.211716	65.931248	-25.731556	-12.120928	-91.980264	34.759646	9.677864	0.000000	67.897273	-32.788557	-9.086318	-92.507147	35.533370	16.036672	0.000000	-8.173537	1.933726	2.882131
0.845000	13.001556	2.197131	-181.362876	0.284490	0.610592	-1.211801	66.374327	-25.890303	-12.033518	-92.656504	34.996506	9.828146	0.000000	68.423006	-32.869245	-8.760014	-93.150911	35.786062	16.082502	0.000000	-8.202921	1.956174	2.881408
